<svg width="254" height="75" viewBox="0 0 254 75" fill="none" xmlns="http://www.w3.org/2000/svg">
<path d="M72.2291 22.5096C71.9146 19.6079 71.8703 14.6102 74.0664 12.932C74.1056 12.9012 74.1348 12.8568 74.1692 12.8186C75.9646 12.1138 77.2071 11.1248 76.2318 9.79386L49.7468 0L6.86151 7.31748C6.86151 7.31748 1.95061 8.17893 2.38931 17.5426C2.62747 22.639 3.92987 25.1419 5.06887 26.3736L1.54975 27.6752C0.572998 29.0061 1.81529 29.9955 3.61095 30.6991C3.64507 30.7384 3.67385 30.7826 3.71377 30.8133C5.90844 32.4929 5.8662 37.4902 5.55052 40.3924C-2.3338 43.14 0.4964 44.0353 0.4964 44.0353L2.2259 44.549C1.00938 45.8981 -0.198791 48.4565 0.0275234 53.3087C0.466457 62.6707 4.50019 63.3168 4.50019 63.3168L32.5641 74.5117L74.9231 61.9198C74.9231 61.9198 77.7542 61.023 69.8678 58.2752C69.5508 55.3775 69.5066 50.3808 71.7064 48.697C71.7468 48.6671 71.7763 48.6218 71.809 48.5842C73.6047 47.8794 74.846 46.8912 73.8704 45.5603L72.0293 44.878C73.2572 43.9693 75.1016 41.5943 75.3906 35.4251C75.59 31.1817 74.688 28.6965 73.6439 27.2334L77.283 26.1526C77.2833 26.1543 80.1144 25.2575 72.2291 22.5096ZM36.7983 22.3897L43.9215 20.593L67.9939 14.5219L71.5804 13.6165C70.4344 16.1906 70.4825 19.7134 70.6721 21.9775C70.7137 22.4897 70.7615 22.9575 70.8079 23.313L66.8823 24.5109L36.4989 33.7871L36.7983 22.3897ZM6.19998 31.5007L9.78595 32.4061L32.9041 38.2385L34.9238 38.7461L40.9804 40.2739L41.2791 51.6716L10.0515 42.1367L6.97293 41.1977C7.01819 40.8417 7.06601 40.3745 7.10941 39.8608C7.29789 37.5984 7.34687 34.0748 6.19998 31.5007ZM4.80681 17.092C4.76341 14.6013 5.12505 12.8001 5.85598 11.8845C6.32114 11.3 6.8701 11.1783 7.24659 11.1783C7.44552 11.1783 7.58874 11.2122 7.59848 11.2122L26.0766 18.6055L35.2956 22.2943L34.9932 33.7714L9.13022 24.8726L7.76538 24.4035C7.71524 24.3861 7.64723 24.3741 7.59477 24.3713C7.48823 24.3619 4.93123 24.073 4.80681 17.092ZM32.6309 69.5393L5.40382 60.171C5.35345 60.1531 5.28613 60.1411 5.23368 60.138C5.12528 60.1291 2.56712 59.8406 2.4434 52.8612C2.3993 50.3675 2.76279 48.5679 3.49233 47.6515C3.95866 47.0669 4.50785 46.9453 4.88364 46.9453C5.08303 46.9453 5.22578 46.9781 5.23623 46.9781L32.9315 58.0618L32.6309 69.5393ZM68.3085 57.7436C68.3514 58.2575 68.3992 58.7244 68.4456 59.0805L34.136 69.5555L34.4359 58.1578L41.771 56.307L42.8543 56.6286L46.9145 55.0091L65.6303 50.2891L69.2181 49.3832C68.071 51.957 68.1186 55.4812 68.3085 57.7436ZM70.1984 42.2538C70.1359 42.2555 70.0735 42.2657 70.0148 42.2885L67.4271 43.1776L42.7884 51.6565L42.4871 40.1793L50.5708 36.9435L70.1445 29.1092C70.1471 29.1078 71.1742 28.8278 71.9281 29.7687C72.6579 30.6843 73.02 32.4855 72.9773 34.9762C72.8496 41.9549 70.2914 42.2449 70.1984 42.2538Z" fill="#272D3E"/>
<path d="M99.744 23.048C98.0267 23.048 96.552 23.1227 95.32 23.272C94.1253 23.4213 93.1173 23.6827 92.296 24.056C91.4747 24.4293 90.952 24.616 90.728 24.616C90.504 24.616 90.3173 24.5787 90.168 24.504C90.0187 24.392 89.9067 24.224 89.832 24C89.7573 23.776 89.7013 23.5707 89.664 23.384C89.5893 23.16 89.552 22.8987 89.552 22.6C89.5147 22.264 89.496 22.0027 89.496 21.816V20.304C89.496 19.3707 89.6827 18.904 90.056 18.904C90.1307 18.904 90.2427 18.9413 90.392 19.016C93.864 17.5973 97.4853 16.888 101.256 16.888C106.483 16.888 110.085 18.5307 112.064 21.816C113.184 23.72 113.744 25.5307 113.744 27.248C113.744 28.9653 112.941 30.6827 111.336 32.4C109.768 34.08 107.509 35.9467 104.56 38C110.795 39.904 114.472 42.9467 115.592 47.128C115.816 47.8373 115.928 48.584 115.928 49.368C115.928 53.7733 111.952 56.7787 104 58.384C102.507 58.72 101.293 58.888 100.36 58.888C99.4267 58.888 98.6053 58.6827 97.896 58.272C97.1867 57.824 96.832 57.264 96.832 56.592C96.832 55.8827 97.056 55.08 97.504 54.184C97.392 52.952 97.336 51.4213 97.336 49.592C97.336 47.7253 97.56 45.168 98.008 41.92C97.6347 41.8827 97.3173 41.7333 97.056 41.472C96.832 41.2107 96.72 40.8933 96.72 40.52C96.72 40.1093 96.776 39.5493 96.888 38.84C97.0373 38.1307 97.1307 37.6453 97.168 37.384C97.3547 35.9653 97.9147 34.9387 98.848 34.304C99.3333 28.032 99.632 24.28 99.744 23.048ZM108.704 25.68C108.704 25.1573 108.051 24.5973 106.744 24C105.475 23.3653 103.384 23.048 100.472 23.048C101.629 23.6827 102.208 24.7653 102.208 26.296V26.744C102.021 28.1627 101.928 29.3387 101.928 30.272C101.928 31.168 101.947 31.784 101.984 32.12C106.464 28.7227 108.704 26.576 108.704 25.68ZM110.72 50.376C111.504 49.928 111.896 49.3867 111.896 48.752C111.896 48.08 111.616 47.3893 111.056 46.68C109.525 44.7387 106.837 43.1893 102.992 42.032C102.544 41.8827 102.189 41.808 101.928 41.808C101.704 41.808 101.48 41.864 101.256 41.976C100.621 45.56 100.285 48.416 100.248 50.544C100.547 49.76 101.125 49.032 101.984 48.36C102.88 47.688 103.608 47.352 104.168 47.352C104.728 47.352 105.008 47.4453 105.008 47.632C105.008 47.8933 104.579 48.1733 103.72 48.472C102.899 48.7333 102.227 49.144 101.704 49.704C101.219 50.2267 100.976 51.0293 100.976 52.112C100.976 53.1573 101.48 53.68 102.488 53.68C104.355 53.68 107.099 52.5787 110.72 50.376ZM131.134 42.984C131.134 47.5013 129.828 51.5147 127.214 55.024C126.281 56.2187 125.236 56.816 124.078 56.816C122.958 56.816 122.062 56.536 121.39 55.976C118.964 53.96 117.75 50.5067 117.75 45.616C117.75 42.2187 118.665 37.888 120.494 32.624C120.644 32.2507 120.774 32.0267 120.886 31.952C120.998 31.84 121.185 31.784 121.446 31.784C121.745 31.784 122.1 31.5973 122.51 31.224C122.921 30.8133 123.593 30.608 124.526 30.608C125.497 30.608 126.468 30.9627 127.438 31.672C128.409 32.3813 129.118 33.3333 129.566 34.528C130.612 37.328 131.134 40.1467 131.134 42.984ZM126.486 39.344C126.486 35.9093 126.057 34.192 125.198 34.192C124.788 34.192 124.414 34.5093 124.078 35.144C122.585 38.6907 121.838 42.928 121.838 47.856C121.838 49.088 121.857 50.0213 121.894 50.656C124.956 48.304 126.486 44.5333 126.486 39.344ZM146.556 42.984C146.556 47.5013 145.249 51.5147 142.636 55.024C141.703 56.2187 140.657 56.816 139.5 56.816C138.38 56.816 137.484 56.536 136.812 55.976C134.385 53.96 133.172 50.5067 133.172 45.616C133.172 42.2187 134.087 37.888 135.916 32.624C136.065 32.2507 136.196 32.0267 136.308 31.952C136.42 31.84 136.607 31.784 136.868 31.784C137.167 31.784 137.521 31.5973 137.932 31.224C138.343 30.8133 139.015 30.608 139.948 30.608C140.919 30.608 141.889 30.9627 142.86 31.672C143.831 32.3813 144.54 33.3333 144.988 34.528C146.033 37.328 146.556 40.1467 146.556 42.984ZM141.908 39.344C141.908 35.9093 141.479 34.192 140.62 34.192C140.209 34.192 139.836 34.5093 139.5 35.144C138.007 38.6907 137.26 42.928 137.26 47.856C137.26 49.088 137.279 50.0213 137.316 50.656C140.377 48.304 141.908 44.5333 141.908 39.344ZM164.498 51.272C165.245 51.272 165.581 51.9253 165.506 53.232C165.506 53.6427 165.543 53.96 165.618 54.184C165.693 54.408 165.73 54.6133 165.73 54.8C165.73 55.3973 165.319 55.8453 164.498 56.144C163.714 56.4427 162.837 56.592 161.866 56.592C160.895 56.592 159.869 56.032 158.786 54.912C157.741 53.7547 155.855 51.16 153.13 47.128V48.528C153.13 50.3573 153.205 51.7387 153.354 52.672C153.541 53.6053 153.634 54.184 153.634 54.408C153.634 55.64 152.925 56.256 151.506 56.256C150.759 56.256 150.237 55.976 149.938 55.416C149.677 54.8187 149.397 53.904 149.098 52.672C148.799 51.44 148.65 50.5627 148.65 50.04C148.65 49.5173 148.725 48.7707 148.874 47.8C149.061 46.792 149.173 46.008 149.21 45.448C149.285 44.8507 149.378 43.8613 149.49 42.48C150.013 34.2667 151.17 24.8213 152.962 14.144C152.813 13.5467 152.738 13.024 152.738 12.576C152.738 12.0907 152.925 11.848 153.298 11.848C153.671 11.848 154.082 12.1093 154.53 12.632C155.165 13.2667 155.669 14.2 156.042 15.432C156.415 16.664 156.602 17.6533 156.602 18.4C156.602 19.1467 156.509 20.0613 156.322 21.144C156.173 22.1893 155.911 23.7573 155.538 25.848C154.717 30.44 154.157 33.968 153.858 36.432C153.933 36.3573 154.194 36.1147 154.642 35.704C155.09 35.256 155.37 34.976 155.482 34.864C155.594 34.752 155.855 34.528 156.266 34.192C156.677 33.8187 156.975 33.576 157.162 33.464C157.386 33.352 157.685 33.184 158.058 32.96C158.469 32.6987 158.823 32.5307 159.122 32.456C159.831 32.1947 160.541 32.064 161.25 32.064C162.893 32.064 164.125 32.6613 164.946 33.856C165.767 35.0507 166.178 36.5253 166.178 38.28C166.178 39.4747 166.01 40.3893 165.674 41.024C165.338 41.6213 165.077 42.088 164.89 42.424C164.703 42.7227 164.386 43.0587 163.938 43.432L162.93 44.272C162.445 44.6827 161.511 45.224 160.13 45.896C158.749 46.568 157.946 46.9787 157.722 47.128C157.535 47.24 157.442 47.3707 157.442 47.52C157.442 47.632 157.535 47.7813 157.722 47.968C159.589 49.8347 161.642 50.9173 163.882 51.216L164.498 51.272ZM161.922 36.768C159.757 37.7387 157.722 39.3067 155.818 41.472C158.021 40.8 160.055 39.232 161.922 36.768ZM184.087 55.976C184.087 56.76 183.769 57.4507 183.135 58.048C182.537 58.608 181.828 58.888 181.007 58.888C180.185 58.888 179.327 58.3467 178.431 57.264C177.572 56.144 177.143 55.192 177.143 54.408C177.143 53.4747 177.385 52.5227 177.871 51.552C177.908 51.2907 178.039 49.984 178.263 47.632C178.487 45.28 179.065 41.3227 179.999 35.76C180.969 30.16 181.585 26.352 181.847 24.336V23.776C181.847 22.88 181.511 22.432 180.839 22.432C180.204 22.432 179.551 22.768 178.879 23.44C178.953 23.5893 178.991 23.888 178.991 24.336C178.991 24.784 178.487 26.2213 177.479 28.648C176.471 31.0373 175.033 34.6773 173.167 39.568C172.607 40.912 171.86 41.584 170.927 41.584C169.993 41.584 169.153 41.024 168.407 39.904C167.66 38.784 167.287 37.832 167.287 37.048C167.287 36.2267 167.417 35.4613 167.679 34.752C168.612 32.512 169.676 30.2907 170.871 28.088C172.065 25.848 172.999 24.0747 173.671 22.768C174.38 21.4613 174.903 20.5093 175.239 19.912C175.612 19.3147 175.985 19.016 176.359 19.016C176.732 19.016 177.068 19.0533 177.367 19.128C178.076 18.2693 179.028 17.84 180.223 17.84C181.417 17.84 182.612 18.2133 183.807 18.96C185.039 19.7067 185.655 21.5733 185.655 24.56C185.655 25.6053 185.561 27.1173 185.375 29.096C185.188 31.0373 185.076 32.2693 185.039 32.792C188.063 24.168 190.751 18.7733 193.103 16.608C193.513 16.1973 194.092 15.992 194.839 15.992C196.519 15.992 197.564 16.328 197.975 17C198.423 17.6347 198.647 18.8293 198.647 20.584C198.647 22.3013 198.479 24.168 198.143 26.184C197.807 28.2 197.284 30.7573 196.575 33.856C195.865 36.9173 195.399 38.952 195.175 39.96C194.988 40.9307 194.895 41.8827 194.895 42.816C194.895 43.7493 194.951 44.216 195.063 44.216C195.361 44.216 196.108 43.2267 197.303 41.248C198.535 39.232 199.263 38.224 199.487 38.224C199.711 38.224 199.823 38.5787 199.823 39.288C199.823 41.7893 199.524 44.44 198.927 47.24C198.367 50.04 197.545 52.168 196.463 53.624C195.417 55.08 194.465 55.808 193.607 55.808C193.233 55.808 192.767 55.6027 192.207 55.192C191.647 54.744 191.311 54.464 191.199 54.352C189.967 53.008 189.351 51.048 189.351 48.472C189.351 46.1947 190.508 39.4373 192.823 28.2C193.532 24.616 194.017 22.1333 194.279 20.752C191.479 25.456 189.295 30.44 187.727 35.704C186.196 40.9307 185.001 46.8853 184.143 53.568L183.975 54.968L184.087 55.976ZM218.111 48.808C218.111 54.4827 215.237 57.32 209.487 57.32C207.098 57.32 205.343 56.704 204.223 55.472C203.141 54.24 202.189 52.3547 201.367 49.816C201.069 48.8453 200.919 47.8187 200.919 46.736C200.919 45.616 201.405 44.1413 202.375 42.312C203.383 40.4453 204.485 38.8213 205.679 37.44C205.829 35.3867 206.295 34.36 207.079 34.36C207.49 34.36 207.77 34.6027 207.919 35.088C208.703 34.3787 209.655 33.688 210.775 33.016C211.895 32.344 212.903 32.008 213.799 32.008C214.695 32.008 215.61 32.5307 216.543 33.576C217.514 34.6213 217.999 35.704 217.999 36.824C217.999 37.9067 217.234 39.4 215.703 41.304C212.829 44.888 210.57 46.68 208.927 46.68C207.733 46.68 206.799 45.6907 206.127 43.712C206.09 43.7867 205.903 44.104 205.567 44.664C205.269 45.1867 205.045 45.5787 204.895 45.84C204.783 46.1013 204.615 46.456 204.391 46.904C204.018 47.7627 203.831 48.528 203.831 49.2C203.831 50.7307 204.597 51.496 206.127 51.496C208.666 51.496 210.813 50.9733 212.567 49.928C214.359 48.8453 216.133 47.2213 217.887 45.056C218.037 46.6987 218.111 47.9493 218.111 48.808ZM208.983 42.032C209.581 42.032 210.458 41.304 211.615 39.848C212.81 38.392 213.407 37.4027 213.407 36.88C213.407 36.32 213.202 36.04 212.791 36.04C212.418 36.04 211.746 36.5253 210.775 37.496C209.842 38.4667 209.095 39.3067 208.535 40.016C208.461 40.464 208.423 40.8 208.423 41.024C208.423 41.696 208.61 42.032 208.983 42.032ZM229.475 31.392C230.035 31.1307 230.8 31 231.771 31C232.741 31 233.899 31.392 235.243 32.176C236.587 32.9227 237.259 33.8187 237.259 34.864C237.259 35.872 236.848 36.7867 236.027 37.608C235.243 38.4293 234.347 38.84 233.339 38.84C231.808 38.84 230.744 38.1307 230.147 36.712C230.072 36.488 229.941 36.376 229.755 36.376C229.605 36.376 228.989 36.6 227.907 37.048C226.861 37.496 226.152 37.8133 225.779 38C225.405 38.1867 225.219 38.3733 225.219 38.56C225.219 38.7093 225.48 38.9147 226.003 39.176C232.648 40.968 235.971 43.712 235.971 47.408C235.971 48.7147 235.448 50.0773 234.403 51.496C233.395 52.8773 231.957 54.016 230.091 54.912C228.224 55.808 226.432 56.256 224.715 56.256C222.997 56.256 221.784 55.7893 221.075 54.856C220.403 53.9227 220.067 52.5787 220.067 50.824C220.067 49.0693 220.683 47.7627 221.915 46.904C223.557 45.8213 224.901 45.28 225.947 45.28C226.208 45.28 226.339 45.3547 226.339 45.504C226.339 45.616 226.04 45.84 225.443 46.176C224.883 46.512 224.267 46.9973 223.595 47.632C222.96 48.2667 222.643 48.7893 222.643 49.2C222.643 49.5733 223.091 49.76 223.987 49.76C226.376 49.76 228.728 49.088 231.043 47.744C231.565 47.4827 231.827 47.184 231.827 46.848C231.827 46.4747 231.435 46.1013 230.651 45.728C229.867 45.3547 228.541 44.8133 226.675 44.104C224.845 43.3947 223.389 42.7973 222.307 42.312C221.261 41.7893 220.739 40.9493 220.739 39.792C220.739 39.456 220.813 38.9893 220.963 38.392C221.149 37.7573 221.261 37.328 221.299 37.104C221.485 35.7973 222.064 34.9013 223.035 34.416C224.043 33.9307 226.189 32.9227 229.475 31.392ZM251.975 31.336C253.133 31.336 253.711 32.0827 253.711 33.576C253.711 34.3227 253.469 34.8827 252.983 35.256C251.789 36.3387 249.735 37.0853 246.823 37.496C246.45 41.0427 246.263 43.992 246.263 46.344C246.263 48.696 246.431 49.872 246.767 49.872C246.991 49.872 247.775 49.2747 249.119 48.08C250.463 46.8853 251.21 46.288 251.359 46.288C251.994 46.288 252.311 47.2587 252.311 49.2C252.311 51.104 251.957 52.9893 251.247 54.856C250.538 56.7227 249.53 57.656 248.223 57.656C247.663 57.656 247.103 57.4693 246.543 57.096C245.983 56.6853 245.554 56.2933 245.255 55.92C244.994 55.5093 244.602 54.912 244.079 54.128C243.594 53.344 243.295 52.8773 243.183 52.728C242.175 51.3467 241.615 49.984 241.503 48.64C241.429 47.2587 241.391 45.6533 241.391 43.824C241.391 41.9947 241.503 40.016 241.727 37.888C240.57 37.8507 239.599 37.44 238.815 36.656C238.069 35.872 237.49 34.9387 237.079 33.856C236.631 32.736 236.407 32.1013 236.407 31.952C236.407 31.4667 236.687 31.224 237.247 31.224L242.623 31.56C242.81 30.4027 243.109 28.7973 243.519 26.744C244.154 23.7573 244.471 22.0213 244.471 21.536L244.359 20.472C244.359 19.8747 244.695 19.576 245.367 19.576C246.039 19.576 246.861 19.912 247.831 20.584C248.802 21.256 249.287 21.8907 249.287 22.488C249.287 22.7493 249.157 23.272 248.895 24.056C248.559 25.2507 248.111 27.752 247.551 31.56L251.975 31.336Z" fill="#272D3E"/>
</svg>
