<svg width="1218" height="336" viewBox="0 0 1218 336" fill="none" xmlns="http://www.w3.org/2000/svg">
<path d="M399.732 101.504C397.991 88.4193 397.746 65.8825 409.899 58.315C410.116 58.1763 410.278 57.9759 410.468 57.8038C420.404 54.6257 427.281 50.1656 421.883 44.164L275.309 0L37.9731 32.9971C37.9731 32.9971 10.7951 36.8817 13.223 79.106C14.541 102.087 21.7488 113.374 28.0522 118.928L8.57663 124.797C3.1711 130.799 10.0462 135.26 19.9837 138.433C20.1726 138.611 20.3319 138.81 20.5528 138.948C32.6986 146.522 32.4648 169.057 30.7177 182.144C-12.9158 194.534 2.74718 198.571 2.74718 198.571L12.3186 200.887C5.58612 206.971 -1.10015 218.508 0.152321 240.388C2.58147 282.605 24.905 285.518 24.905 285.518L180.216 336L414.64 279.219C414.64 279.219 430.309 275.175 386.663 262.784C384.909 249.717 384.665 227.185 396.839 219.592C397.062 219.457 397.225 219.253 397.406 219.083C407.344 215.905 414.214 211.449 408.815 205.448L398.626 202.371C405.421 198.273 415.628 187.564 417.228 159.745C418.331 140.609 413.339 129.403 407.561 122.805L427.701 117.931C427.702 117.939 443.37 113.895 399.732 101.504ZM203.65 100.963L243.071 92.8614L376.293 65.4843L396.141 61.4019C389.799 73.0094 390.065 88.8946 391.115 99.1045C391.345 101.414 391.609 103.523 391.866 105.127L370.141 110.528L201.993 152.358L203.65 100.963ZM34.312 142.048L54.1576 146.131L182.098 172.431L193.276 174.72L226.794 181.61L228.448 233.006L55.6271 190.009L38.5897 185.775C38.8402 184.17 39.1048 182.063 39.345 179.747C40.3881 169.545 40.6591 153.656 34.312 142.048ZM26.6019 77.0738C26.3617 65.8427 28.3631 57.7203 32.4083 53.5916C34.9826 50.9556 38.0206 50.4071 40.1042 50.4071C41.2051 50.4071 41.9977 50.56 42.0516 50.56L144.314 83.8988L195.333 100.533L193.66 152.288L50.5286 112.16L42.9753 110.044C42.6978 109.966 42.3214 109.912 42.0311 109.899C41.4415 109.856 27.2905 108.554 26.6019 77.0738ZM180.586 313.578L29.9059 271.333C29.6271 271.252 29.2546 271.198 28.9643 271.184C28.3644 271.144 14.207 269.843 13.5223 238.37C13.2782 227.125 15.2899 219.01 19.3273 214.878C21.9081 212.242 24.9474 211.693 27.0271 211.693C28.1306 211.693 28.9206 211.841 28.9784 211.841L182.25 261.822L180.586 313.578ZM378.034 260.387C378.271 262.704 378.536 264.81 378.793 266.415L188.916 313.651L190.575 262.254L231.17 253.909L237.165 255.359L259.635 248.056L363.212 226.772L383.068 222.687C376.72 234.293 376.983 250.185 378.034 260.387ZM388.493 190.537C388.147 190.545 387.802 190.591 387.477 190.694L373.156 194.703L236.8 232.938L235.133 181.183L279.869 166.591L388.195 131.264C388.209 131.258 393.893 129.995 398.065 134.238C402.104 138.367 404.108 146.489 403.872 157.72C403.165 189.19 389.008 190.498 388.493 190.537Z" fill="#F7F7F7"/>
<path d="M540.883 101.112C533.339 101.112 526.861 101.44 521.449 102.096C516.201 102.752 511.773 103.9 508.165 105.54C504.557 107.18 502.261 108 501.277 108C500.293 108 499.473 107.836 498.817 107.508C498.161 107.016 497.669 106.278 497.341 105.294C497.013 104.31 496.767 103.408 496.603 102.588C496.275 101.604 496.111 100.456 496.111 99.1439C495.947 97.6679 495.865 96.5199 495.865 95.6999V89.0579C495.865 84.9579 496.685 82.9079 498.325 82.9079C498.653 82.9079 499.145 83.0719 499.801 83.3999C515.053 77.1679 530.961 74.0519 547.525 74.0519C570.485 74.0519 586.311 81.2679 595.003 95.6999C599.923 104.064 602.383 112.018 602.383 119.562C602.383 127.106 598.857 134.65 591.805 142.194C584.917 149.574 574.995 157.774 562.039 166.794C589.427 175.158 605.581 188.524 610.501 206.892C611.485 210.008 611.977 213.288 611.977 216.732C611.977 236.084 594.511 249.286 559.579 256.338C553.019 257.814 547.689 258.552 543.589 258.552C539.489 258.552 535.881 257.65 532.765 255.846C529.649 253.878 528.091 251.418 528.091 248.466C528.091 245.35 529.075 241.824 531.043 237.888C530.551 232.476 530.305 225.752 530.305 217.716C530.305 209.516 531.289 198.282 533.257 184.014C531.617 183.85 530.223 183.194 529.075 182.046C528.091 180.898 527.599 179.504 527.599 177.864C527.599 176.06 527.845 173.6 528.337 170.484C528.993 167.368 529.403 165.236 529.567 164.088C530.387 157.856 532.847 153.346 536.947 150.558C539.079 123.006 540.391 106.524 540.883 101.112ZM580.243 112.674C580.243 110.378 577.373 107.918 571.633 105.294C566.057 102.506 556.873 101.112 544.081 101.112C549.165 103.9 551.707 108.656 551.707 115.38V117.348C550.887 123.58 550.477 128.746 550.477 132.846C550.477 136.782 550.559 139.488 550.723 140.964C570.403 126.04 580.243 116.61 580.243 112.674ZM589.099 221.16C592.543 219.192 594.265 216.814 594.265 214.026C594.265 211.074 593.035 208.04 590.575 204.924C583.851 196.396 572.043 189.59 555.151 184.506C553.183 183.85 551.625 183.522 550.477 183.522C549.493 183.522 548.509 183.768 547.525 184.26C544.737 200.004 543.261 212.55 543.097 221.898C544.409 218.454 546.951 215.256 550.723 212.304C554.659 209.352 557.857 207.876 560.317 207.876C562.777 207.876 564.007 208.286 564.007 209.106C564.007 210.254 562.121 211.484 558.349 212.796C554.741 213.944 551.789 215.748 549.493 218.208C547.361 220.504 546.295 224.03 546.295 228.786C546.295 233.378 548.509 235.674 552.937 235.674C561.137 235.674 573.191 230.836 589.099 221.16ZM678.776 188.688C678.776 208.532 673.036 226.162 661.556 241.578C657.456 246.826 652.864 249.45 647.78 249.45C642.86 249.45 638.924 248.22 635.972 245.76C625.312 236.904 619.982 221.734 619.982 200.25C619.982 185.326 624 166.302 632.036 143.178C632.692 141.538 633.266 140.554 633.758 140.226C634.25 139.734 635.07 139.488 636.218 139.488C637.53 139.488 639.088 138.668 640.892 137.028C642.696 135.224 645.648 134.322 649.748 134.322C654.012 134.322 658.276 135.88 662.54 138.996C666.804 142.112 669.92 146.294 671.888 151.542C676.48 163.842 678.776 176.224 678.776 188.688ZM658.358 172.698C658.358 157.61 656.472 150.066 652.7 150.066C650.896 150.066 649.256 151.46 647.78 154.248C641.22 169.828 637.94 188.442 637.94 210.09C637.94 215.502 638.022 219.602 638.186 222.39C651.634 212.058 658.358 195.494 658.358 172.698ZM746.522 188.688C746.522 208.532 740.782 226.162 729.302 241.578C725.202 246.826 720.61 249.45 715.526 249.45C710.606 249.45 706.67 248.22 703.718 245.76C693.058 236.904 687.728 221.734 687.728 200.25C687.728 185.326 691.746 166.302 699.782 143.178C700.438 141.538 701.012 140.554 701.504 140.226C701.996 139.734 702.816 139.488 703.964 139.488C705.276 139.488 706.834 138.668 708.638 137.028C710.442 135.224 713.394 134.322 717.494 134.322C721.758 134.322 726.022 135.88 730.286 138.996C734.55 142.112 737.666 146.294 739.634 151.542C744.226 163.842 746.522 176.224 746.522 188.688ZM726.104 172.698C726.104 157.61 724.218 150.066 720.446 150.066C718.642 150.066 717.002 151.46 715.526 154.248C708.966 169.828 705.686 188.442 705.686 210.09C705.686 215.502 705.768 219.602 705.932 222.39C719.38 212.058 726.104 195.494 726.104 172.698ZM825.338 225.096C828.618 225.096 830.094 227.966 829.766 233.706C829.766 235.51 829.93 236.904 830.258 237.888C830.586 238.872 830.75 239.774 830.75 240.594C830.75 243.218 828.946 245.186 825.338 246.498C821.894 247.81 818.04 248.466 813.776 248.466C809.512 248.466 805.002 246.006 800.246 241.086C795.654 236.002 787.372 224.604 775.4 206.892V213.042C775.4 221.078 775.728 227.146 776.384 231.246C777.204 235.346 777.614 237.888 777.614 238.872C777.614 244.284 774.498 246.99 768.266 246.99C764.986 246.99 762.69 245.76 761.378 243.3C760.23 240.676 759 236.658 757.688 231.246C756.376 225.834 755.72 221.98 755.72 219.684C755.72 217.388 756.048 214.108 756.704 209.844C757.524 205.416 758.016 201.972 758.18 199.512C758.508 196.888 758.918 192.542 759.41 186.474C761.706 150.394 766.79 108.902 774.662 61.9979C774.006 59.3739 773.678 57.0779 773.678 55.1099C773.678 52.9779 774.498 51.9119 776.138 51.9119C777.778 51.9119 779.582 53.0599 781.55 55.3559C784.338 58.1439 786.552 62.2439 788.192 67.6559C789.832 73.0679 790.652 77.4139 790.652 80.6939C790.652 83.9739 790.242 87.9919 789.422 92.7479C788.766 97.3399 787.618 104.228 785.978 113.412C782.37 133.584 779.91 149.082 778.598 159.906C778.926 159.578 780.074 158.512 782.042 156.708C784.01 154.74 785.24 153.51 785.732 153.018C786.224 152.526 787.372 151.542 789.176 150.066C790.98 148.426 792.292 147.36 793.112 146.868C794.096 146.376 795.408 145.638 797.048 144.654C798.852 143.506 800.41 142.768 801.722 142.44C804.838 141.292 807.954 140.718 811.07 140.718C818.286 140.718 823.698 143.342 827.306 148.59C830.914 153.838 832.718 160.316 832.718 168.024C832.718 173.272 831.98 177.29 830.504 180.078C829.028 182.702 827.88 184.752 827.06 186.228C826.24 187.54 824.846 189.016 822.878 190.656L818.45 194.346C816.318 196.15 812.218 198.528 806.15 201.48C800.082 204.432 796.556 206.236 795.572 206.892C794.752 207.384 794.342 207.958 794.342 208.614C794.342 209.106 794.752 209.762 795.572 210.582C803.772 218.782 812.792 223.538 822.632 224.85L825.338 225.096ZM814.022 161.382C804.51 165.646 795.572 172.534 787.208 182.046C796.884 179.094 805.822 172.206 814.022 161.382ZM911.388 245.76C911.388 249.204 909.994 252.238 907.206 254.862C904.582 257.322 901.466 258.552 897.858 258.552C894.25 258.552 890.478 256.174 886.542 251.418C882.77 246.498 880.884 242.316 880.884 238.872C880.884 234.772 881.95 230.59 884.082 226.326C884.246 225.178 884.82 219.438 885.804 209.106C886.788 198.774 889.33 181.39 893.43 156.954C897.694 132.354 900.4 115.626 901.548 106.77V104.31C901.548 100.374 900.072 98.4059 897.12 98.4059C894.332 98.4059 891.462 99.8819 888.51 102.834C888.838 103.49 889.002 104.802 889.002 106.77C889.002 108.738 886.788 115.052 882.36 125.712C877.932 136.208 871.618 152.198 863.418 173.682C860.958 179.586 857.678 182.538 853.578 182.538C849.478 182.538 845.788 180.078 842.508 175.158C839.228 170.238 837.588 166.056 837.588 162.612C837.588 159.004 838.162 155.642 839.31 152.526C843.41 142.686 848.084 132.928 853.332 123.252C858.58 113.412 862.68 105.622 865.632 99.8819C868.748 94.1419 871.044 89.9599 872.52 87.3359C874.16 84.7119 875.8 83.3999 877.44 83.3999C879.08 83.3999 880.556 83.5639 881.868 83.8919C884.984 80.1199 889.166 78.2339 894.414 78.2339C899.662 78.2339 904.91 79.8739 910.158 83.1539C915.57 86.4339 918.276 94.6339 918.276 107.754C918.276 112.346 917.866 118.988 917.046 127.68C916.226 136.208 915.734 141.62 915.57 143.916C928.854 106.032 940.662 82.3339 950.994 72.8219C952.798 71.0179 955.34 70.1159 958.62 70.1159C966 70.1159 970.592 71.5919 972.396 74.5439C974.364 77.3319 975.348 82.5799 975.348 90.2879C975.348 97.8319 974.61 106.032 973.134 114.888C971.658 123.744 969.362 134.978 966.246 148.59C963.13 162.038 961.08 170.976 960.096 175.404C959.276 179.668 958.866 183.85 958.866 187.95C958.866 192.05 959.112 194.1 959.604 194.1C960.916 194.1 964.196 189.754 969.444 181.062C974.856 172.206 978.054 167.778 979.038 167.778C980.022 167.778 980.514 169.336 980.514 172.452C980.514 183.44 979.202 195.084 976.578 207.384C974.118 219.684 970.51 229.032 965.754 235.428C961.162 241.824 956.98 245.022 953.208 245.022C951.568 245.022 949.518 244.12 947.058 242.316C944.598 240.348 943.122 239.118 942.63 238.626C937.218 232.722 934.512 224.112 934.512 212.796C934.512 202.792 939.596 173.108 949.764 123.744C952.88 108 955.012 97.0939 956.16 91.0259C943.86 111.69 934.266 133.584 927.378 156.708C920.654 179.668 915.406 205.826 911.634 235.182L910.896 241.332L911.388 245.76ZM1060.85 214.272C1060.85 239.2 1048.23 251.664 1022.97 251.664C1012.47 251.664 1004.77 248.958 999.846 243.546C995.09 238.134 990.908 229.852 987.3 218.7C985.988 214.436 985.332 209.926 985.332 205.17C985.332 200.25 987.464 193.772 991.728 185.736C996.156 177.536 1000.99 170.402 1006.24 164.334C1006.9 155.314 1008.95 150.804 1012.39 150.804C1014.2 150.804 1015.43 151.87 1016.08 154.002C1019.53 150.886 1023.71 147.852 1028.63 144.9C1033.55 141.948 1037.98 140.472 1041.91 140.472C1045.85 140.472 1049.87 142.768 1053.97 147.36C1058.23 151.952 1060.36 156.708 1060.36 161.628C1060.36 166.384 1057 172.944 1050.28 181.308C1037.65 197.052 1027.73 204.924 1020.51 204.924C1015.26 204.924 1011.16 200.578 1008.21 191.886C1008.05 192.214 1007.23 193.608 1005.75 196.068C1004.44 198.364 1003.45 200.086 1002.8 201.234C1002.31 202.382 1001.57 203.94 1000.58 205.908C998.944 209.68 998.124 213.042 998.124 215.994C998.124 222.718 1001.49 226.08 1008.21 226.08C1019.36 226.08 1028.79 223.784 1036.5 219.192C1044.37 214.436 1052.16 207.302 1059.87 197.79C1060.53 205.006 1060.85 210.5 1060.85 214.272ZM1020.76 184.506C1023.38 184.506 1027.23 181.308 1032.32 174.912C1037.57 168.516 1040.19 164.17 1040.19 161.874C1040.19 159.414 1039.29 158.184 1037.48 158.184C1035.84 158.184 1032.89 160.316 1028.63 164.58C1024.53 168.844 1021.25 172.534 1018.79 175.65C1018.46 177.618 1018.3 179.094 1018.3 180.078C1018.3 183.03 1019.12 184.506 1020.76 184.506ZM1110.77 137.766C1113.23 136.618 1116.59 136.044 1120.86 136.044C1125.12 136.044 1130.21 137.766 1136.11 141.21C1142.01 144.49 1144.97 148.426 1144.97 153.018C1144.97 157.446 1143.16 161.464 1139.55 165.072C1136.11 168.68 1132.17 170.484 1127.75 170.484C1121.02 170.484 1116.35 167.368 1113.72 161.136C1113.4 160.152 1112.82 159.66 1112 159.66C1111.35 159.66 1108.64 160.644 1103.88 162.612C1099.29 164.58 1096.18 165.974 1094.54 166.794C1092.9 167.614 1092.08 168.434 1092.08 169.254C1092.08 169.91 1093.22 170.812 1095.52 171.96C1124.71 179.832 1139.31 191.886 1139.31 208.122C1139.31 213.862 1137.01 219.848 1132.42 226.08C1127.99 232.148 1121.68 237.15 1113.48 241.086C1105.28 245.022 1097.41 246.99 1089.86 246.99C1082.32 246.99 1076.99 244.94 1073.87 240.84C1070.92 236.74 1069.44 230.836 1069.44 223.128C1069.44 215.42 1072.15 209.68 1077.56 205.908C1084.78 201.152 1090.68 198.774 1095.27 198.774C1096.42 198.774 1097 199.102 1097 199.758C1097 200.25 1095.68 201.234 1093.06 202.71C1090.6 204.186 1087.89 206.318 1084.94 209.106C1082.15 211.894 1080.76 214.19 1080.76 215.994C1080.76 217.634 1082.73 218.454 1086.66 218.454C1097.16 218.454 1107.49 215.502 1117.66 209.598C1119.96 208.45 1121.1 207.138 1121.1 205.662C1121.1 204.022 1119.38 202.382 1115.94 200.742C1112.49 199.102 1106.67 196.724 1098.47 193.608C1090.44 190.492 1084.04 187.868 1079.28 185.736C1074.69 183.44 1072.4 179.75 1072.4 174.666C1072.4 173.19 1072.72 171.14 1073.38 168.516C1074.2 165.728 1074.69 163.842 1074.86 162.858C1075.68 157.118 1078.22 153.182 1082.48 151.05C1086.91 148.918 1096.34 144.49 1110.77 137.766ZM1209.61 137.52C1214.7 137.52 1217.24 140.8 1217.24 147.36C1217.24 150.64 1216.17 153.1 1214.04 154.74C1208.79 159.496 1199.77 162.776 1186.98 164.58C1185.34 180.16 1184.52 193.116 1184.52 203.448C1184.52 213.78 1185.26 218.946 1186.74 218.946C1187.72 218.946 1191.16 216.322 1197.07 211.074C1202.97 205.826 1206.25 203.202 1206.91 203.202C1209.7 203.202 1211.09 207.466 1211.09 215.994C1211.09 224.358 1209.53 232.64 1206.42 240.84C1203.3 249.04 1198.87 253.14 1193.13 253.14C1190.67 253.14 1188.21 252.32 1185.75 250.68C1183.29 248.876 1181.41 247.154 1180.09 245.514C1178.95 243.71 1177.22 241.086 1174.93 237.642C1172.8 234.198 1171.48 232.148 1170.99 231.492C1166.56 225.424 1164.1 219.438 1163.61 213.534C1163.28 207.466 1163.12 200.414 1163.12 192.378C1163.12 184.342 1163.61 175.65 1164.6 166.302C1159.51 166.138 1155.25 164.334 1151.8 160.89C1148.52 157.446 1145.98 153.346 1144.18 148.59C1142.21 143.67 1141.23 140.882 1141.23 140.226C1141.23 138.094 1142.46 137.028 1144.92 137.028L1168.53 138.504C1169.35 133.42 1170.66 126.368 1172.47 117.348C1175.26 104.228 1176.65 96.6019 1176.65 94.4699L1176.16 89.7959C1176.16 87.1719 1177.63 85.8599 1180.59 85.8599C1183.54 85.8599 1187.15 87.3359 1191.41 90.2879C1195.67 93.2399 1197.81 96.0279 1197.81 98.6519C1197.81 99.7999 1197.23 102.096 1196.08 105.54C1194.61 110.788 1192.64 121.776 1190.18 138.504L1209.61 137.52Z" fill="#F7F7F7"/>
</svg>
